<mxfile host="app.diagrams.net" modified="2023-09-11T05:44:22.109Z" agent="Mozilla/5.0 (Windows NT 10.0; Win64; x64) AppleWebKit/537.36 (KHTML, like Gecko) Chrome/117.0.0.0 Safari/537.36" etag="AkU_201tb8optafT392X" version="21.7.4" type="github">
  <diagram name="Page-1" id="e7e014a7-5840-1c2e-5031-d8a46d1fe8dd">
    <mxGraphModel dx="1363" dy="758" grid="1" gridSize="10" guides="1" tooltips="1" connect="1" arrows="1" fold="1" page="1" pageScale="1" pageWidth="1169" pageHeight="826" background="none" math="0" shadow="0">
      <root>
        <mxCell id="0" />
        <mxCell id="1" parent="0" />
        <mxCell id="2" value="DuplicateFilterService" style="swimlane;whiteSpace=wrap" parent="1" vertex="1">
          <mxGeometry x="450" y="120" width="410" height="1060" as="geometry" />
        </mxCell>
        <mxCell id="OCj9T3htOXgsMQk1pcai-53" style="edgeStyle=elbowEdgeStyle;shape=connector;rounded=0;orthogonalLoop=1;jettySize=auto;elbow=horizontal;html=1;exitX=0.5;exitY=1;exitDx=0;exitDy=0;labelBackgroundColor=default;strokeColor=#FF0000;fontFamily=Helvetica;fontSize=11;fontColor=default;endArrow=open;endFill=1;endSize=8;entryX=0.5;entryY=0;entryDx=0;entryDy=0;" edge="1" parent="2" source="OCj9T3htOXgsMQk1pcai-52" target="OCj9T3htOXgsMQk1pcai-54">
          <mxGeometry relative="1" as="geometry">
            <mxPoint x="140" y="200" as="targetPoint" />
          </mxGeometry>
        </mxCell>
        <mxCell id="OCj9T3htOXgsMQk1pcai-52" value="Create&#xa;PipelineSession&#xa;and store session data" style="" vertex="1" parent="2">
          <mxGeometry x="80" y="110" width="130" height="50" as="geometry" />
        </mxCell>
        <mxCell id="OCj9T3htOXgsMQk1pcai-54" value="Return sessionId" style="" vertex="1" parent="2">
          <mxGeometry x="90" y="210" width="110" height="50" as="geometry" />
        </mxCell>
        <mxCell id="OCj9T3htOXgsMQk1pcai-63" style="edgeStyle=elbowEdgeStyle;shape=connector;rounded=0;orthogonalLoop=1;jettySize=auto;elbow=horizontal;html=1;exitX=0.5;exitY=1;exitDx=0;exitDy=0;entryX=0.5;entryY=0;entryDx=0;entryDy=0;labelBackgroundColor=default;strokeColor=#FF0000;fontFamily=Helvetica;fontSize=11;fontColor=default;endArrow=open;endFill=1;endSize=8;" edge="1" parent="2" source="OCj9T3htOXgsMQk1pcai-58" target="OCj9T3htOXgsMQk1pcai-60">
          <mxGeometry relative="1" as="geometry" />
        </mxCell>
        <mxCell id="OCj9T3htOXgsMQk1pcai-58" value="Get session data&#xa;and run filter" style="" vertex="1" parent="2">
          <mxGeometry x="90" y="293" width="110" height="50" as="geometry" />
        </mxCell>
        <mxCell id="OCj9T3htOXgsMQk1pcai-71" style="shape=connector;rounded=0;orthogonalLoop=1;jettySize=auto;elbow=horizontal;html=1;exitX=1;exitY=0;exitDx=0;exitDy=0;entryX=0;entryY=1;entryDx=0;entryDy=0;entryPerimeter=0;labelBackgroundColor=default;strokeColor=#FF0000;fontFamily=Helvetica;fontSize=11;fontColor=default;endArrow=none;endFill=0;endSize=8;dashed=1;" edge="1" parent="2" source="OCj9T3htOXgsMQk1pcai-60" target="OCj9T3htOXgsMQk1pcai-70">
          <mxGeometry relative="1" as="geometry" />
        </mxCell>
        <mxCell id="OCj9T3htOXgsMQk1pcai-60" value="Allow Filtering" style="rhombus;whiteSpace=wrap;html=1;fontColor=#000000;fillColor=#ffffc0;strokeColor=#ff0000;fontFamily=Helvetica;fontSize=11;" vertex="1" parent="2">
          <mxGeometry x="102.5" y="380" width="85" height="50" as="geometry" />
        </mxCell>
        <mxCell id="OCj9T3htOXgsMQk1pcai-61" value="no" style="edgeStyle=orthogonalEdgeStyle;html=1;align=left;verticalAlign=bottom;endArrow=open;endSize=8;strokeColor=#ff0000;rounded=0;labelBackgroundColor=default;fontFamily=Helvetica;fontSize=11;fontColor=default;shape=connector;elbow=horizontal;entryX=0;entryY=0.5;entryDx=0;entryDy=0;" edge="1" source="OCj9T3htOXgsMQk1pcai-60" parent="2" target="OCj9T3htOXgsMQk1pcai-64">
          <mxGeometry x="-1" relative="1" as="geometry">
            <mxPoint x="270" y="405" as="targetPoint" />
            <Array as="points">
              <mxPoint x="260" y="405" />
              <mxPoint x="260" y="405" />
            </Array>
          </mxGeometry>
        </mxCell>
        <mxCell id="OCj9T3htOXgsMQk1pcai-62" value="yes" style="edgeStyle=orthogonalEdgeStyle;html=1;align=left;verticalAlign=top;endArrow=open;endSize=8;strokeColor=#ff0000;rounded=0;labelBackgroundColor=default;fontFamily=Helvetica;fontSize=11;fontColor=default;shape=connector;elbow=horizontal;entryX=0.5;entryY=0;entryDx=0;entryDy=0;" edge="1" source="OCj9T3htOXgsMQk1pcai-60" parent="2" target="OCj9T3htOXgsMQk1pcai-65">
          <mxGeometry x="-1" relative="1" as="geometry">
            <mxPoint x="120" y="500" as="targetPoint" />
          </mxGeometry>
        </mxCell>
        <mxCell id="OCj9T3htOXgsMQk1pcai-64" value="Mark as not filterable" style="whiteSpace=wrap;" vertex="1" parent="2">
          <mxGeometry x="270" y="380" width="110" height="50" as="geometry" />
        </mxCell>
        <mxCell id="OCj9T3htOXgsMQk1pcai-75" style="edgeStyle=elbowEdgeStyle;shape=connector;rounded=0;orthogonalLoop=1;jettySize=auto;elbow=horizontal;html=1;exitX=0.5;exitY=1;exitDx=0;exitDy=0;entryX=0.5;entryY=0;entryDx=0;entryDy=0;labelBackgroundColor=default;strokeColor=#FF0000;fontFamily=Helvetica;fontSize=11;fontColor=default;endArrow=open;endFill=1;endSize=8;" edge="1" parent="2" source="OCj9T3htOXgsMQk1pcai-65" target="OCj9T3htOXgsMQk1pcai-72">
          <mxGeometry relative="1" as="geometry" />
        </mxCell>
        <mxCell id="OCj9T3htOXgsMQk1pcai-65" value="Filtering" style="whiteSpace=wrap;" vertex="1" parent="2">
          <mxGeometry x="90" y="470" width="110" height="50" as="geometry" />
        </mxCell>
        <mxCell id="OCj9T3htOXgsMQk1pcai-70" value="At least one filter condition met requirement&lt;br&gt;(comparing data not null)" style="shape=note;whiteSpace=wrap;html=1;backgroundOutline=1;darkOpacity=0.05;fontFamily=Helvetica;fontSize=11;fontColor=default;" vertex="1" parent="2">
          <mxGeometry x="280" y="170" width="90" height="130" as="geometry" />
        </mxCell>
        <mxCell id="OCj9T3htOXgsMQk1pcai-72" value="IsDuplicated" style="rhombus;whiteSpace=wrap;html=1;fontColor=#000000;fillColor=#ffffc0;strokeColor=#ff0000;fontFamily=Helvetica;fontSize=11;" vertex="1" parent="2">
          <mxGeometry x="105" y="560" width="80" height="40" as="geometry" />
        </mxCell>
        <mxCell id="OCj9T3htOXgsMQk1pcai-73" value="no" style="edgeStyle=orthogonalEdgeStyle;html=1;align=left;verticalAlign=bottom;endArrow=open;endSize=8;strokeColor=#ff0000;rounded=0;labelBackgroundColor=default;fontFamily=Helvetica;fontSize=11;fontColor=default;shape=connector;elbow=horizontal;entryX=0;entryY=0.5;entryDx=0;entryDy=0;" edge="1" source="OCj9T3htOXgsMQk1pcai-72" parent="2" target="OCj9T3htOXgsMQk1pcai-78">
          <mxGeometry x="-0.738" relative="1" as="geometry">
            <mxPoint x="250" y="610" as="targetPoint" />
            <Array as="points">
              <mxPoint x="270" y="580" />
            </Array>
            <mxPoint as="offset" />
          </mxGeometry>
        </mxCell>
        <mxCell id="OCj9T3htOXgsMQk1pcai-74" value="yes" style="edgeStyle=orthogonalEdgeStyle;html=1;align=left;verticalAlign=top;endArrow=open;endSize=8;strokeColor=#ff0000;rounded=0;labelBackgroundColor=default;fontFamily=Helvetica;fontSize=11;fontColor=default;shape=connector;elbow=horizontal;entryX=0.5;entryY=0;entryDx=0;entryDy=0;exitX=0;exitY=0.5;exitDx=0;exitDy=0;" edge="1" source="OCj9T3htOXgsMQk1pcai-72" parent="2" target="OCj9T3htOXgsMQk1pcai-76">
          <mxGeometry x="-0.4709" y="-20" relative="1" as="geometry">
            <mxPoint x="70" y="640" as="targetPoint" />
            <mxPoint as="offset" />
          </mxGeometry>
        </mxCell>
        <mxCell id="OCj9T3htOXgsMQk1pcai-84" style="edgeStyle=elbowEdgeStyle;shape=connector;rounded=0;orthogonalLoop=1;jettySize=auto;elbow=horizontal;html=1;labelBackgroundColor=default;strokeColor=#FF0000;fontFamily=Helvetica;fontSize=11;fontColor=default;endArrow=open;endFill=1;endSize=8;entryX=0.039;entryY=0.1;entryDx=0;entryDy=0;entryPerimeter=0;" edge="1" parent="2" source="OCj9T3htOXgsMQk1pcai-76" target="OCj9T3htOXgsMQk1pcai-81">
          <mxGeometry relative="1" as="geometry">
            <mxPoint x="80" y="710" as="targetPoint" />
          </mxGeometry>
        </mxCell>
        <mxCell id="OCj9T3htOXgsMQk1pcai-76" value="Use existed customer as reference" style="whiteSpace=wrap;" vertex="1" parent="2">
          <mxGeometry x="25" y="630" width="110" height="50" as="geometry" />
        </mxCell>
        <mxCell id="OCj9T3htOXgsMQk1pcai-79" style="edgeStyle=elbowEdgeStyle;shape=connector;rounded=0;orthogonalLoop=1;jettySize=auto;elbow=horizontal;html=1;exitX=0.5;exitY=1;exitDx=0;exitDy=0;labelBackgroundColor=default;strokeColor=#FF0000;fontFamily=Helvetica;fontSize=11;fontColor=default;endArrow=open;endFill=1;endSize=8;entryX=0.5;entryY=0;entryDx=0;entryDy=0;" edge="1" parent="2" source="OCj9T3htOXgsMQk1pcai-78" target="OCj9T3htOXgsMQk1pcai-80">
          <mxGeometry relative="1" as="geometry">
            <mxPoint x="325" y="640" as="targetPoint" />
          </mxGeometry>
        </mxCell>
        <mxCell id="OCj9T3htOXgsMQk1pcai-78" value="Create new customer" style="whiteSpace=wrap;" vertex="1" parent="2">
          <mxGeometry x="270" y="555" width="110" height="50" as="geometry" />
        </mxCell>
        <mxCell id="OCj9T3htOXgsMQk1pcai-83" style="edgeStyle=elbowEdgeStyle;shape=connector;rounded=0;orthogonalLoop=1;jettySize=auto;elbow=horizontal;html=1;exitX=0.5;exitY=1;exitDx=0;exitDy=0;labelBackgroundColor=default;strokeColor=#FF0000;fontFamily=Helvetica;fontSize=11;fontColor=default;endArrow=open;endFill=1;endSize=8;entryX=0.907;entryY=0.2;entryDx=0;entryDy=0;entryPerimeter=0;" edge="1" parent="2" source="OCj9T3htOXgsMQk1pcai-80" target="OCj9T3htOXgsMQk1pcai-81">
          <mxGeometry relative="1" as="geometry">
            <mxPoint x="325" y="720" as="targetPoint" />
          </mxGeometry>
        </mxCell>
        <mxCell id="OCj9T3htOXgsMQk1pcai-80" value="Use new customer as reference" style="whiteSpace=wrap;" vertex="1" parent="2">
          <mxGeometry x="270" y="630" width="110" height="60" as="geometry" />
        </mxCell>
        <mxCell id="OCj9T3htOXgsMQk1pcai-81" value="" style="shape=line;html=1;strokeWidth=6;strokeColor=#ff0000;fontFamily=Helvetica;fontSize=11;fontColor=default;" vertex="1" parent="2">
          <mxGeometry x="70" y="730" width="280" height="10" as="geometry" />
        </mxCell>
        <mxCell id="OCj9T3htOXgsMQk1pcai-82" value="" style="edgeStyle=orthogonalEdgeStyle;html=1;verticalAlign=bottom;endArrow=open;endSize=8;strokeColor=#ff0000;rounded=0;labelBackgroundColor=default;fontFamily=Helvetica;fontSize=11;fontColor=default;shape=connector;elbow=horizontal;entryX=0.5;entryY=0;entryDx=0;entryDy=0;" edge="1" source="OCj9T3htOXgsMQk1pcai-81" parent="2" target="OCj9T3htOXgsMQk1pcai-85">
          <mxGeometry relative="1" as="geometry">
            <mxPoint x="210" y="780" as="targetPoint" />
          </mxGeometry>
        </mxCell>
        <mxCell id="OCj9T3htOXgsMQk1pcai-86" style="edgeStyle=elbowEdgeStyle;shape=connector;rounded=0;orthogonalLoop=1;jettySize=auto;elbow=horizontal;html=1;exitX=0.5;exitY=1;exitDx=0;exitDy=0;labelBackgroundColor=default;strokeColor=#FF0000;fontFamily=Helvetica;fontSize=11;fontColor=default;endArrow=open;endFill=1;endSize=8;entryX=0.5;entryY=0;entryDx=0;entryDy=0;" edge="1" parent="2" source="OCj9T3htOXgsMQk1pcai-85" target="OCj9T3htOXgsMQk1pcai-87">
          <mxGeometry relative="1" as="geometry">
            <mxPoint x="210" y="870" as="targetPoint" />
          </mxGeometry>
        </mxCell>
        <mxCell id="OCj9T3htOXgsMQk1pcai-85" value="Report progress" style="whiteSpace=wrap;" vertex="1" parent="2">
          <mxGeometry x="155" y="770" width="110" height="50" as="geometry" />
        </mxCell>
        <mxCell id="OCj9T3htOXgsMQk1pcai-90" style="edgeStyle=elbowEdgeStyle;shape=connector;rounded=0;orthogonalLoop=1;jettySize=auto;elbow=horizontal;html=1;exitX=0;exitY=0.5;exitDx=0;exitDy=0;labelBackgroundColor=default;strokeColor=#FF0000;fontFamily=Helvetica;fontSize=11;fontColor=default;endArrow=open;endFill=1;endSize=8;entryX=0;entryY=0.75;entryDx=0;entryDy=0;" edge="1" parent="2" source="OCj9T3htOXgsMQk1pcai-87" target="OCj9T3htOXgsMQk1pcai-58">
          <mxGeometry relative="1" as="geometry">
            <mxPoint x="30" y="370" as="targetPoint" />
            <Array as="points">
              <mxPoint x="10" y="620" />
            </Array>
          </mxGeometry>
        </mxCell>
        <mxCell id="OCj9T3htOXgsMQk1pcai-91" value="no" style="edgeLabel;html=1;align=center;verticalAlign=middle;resizable=0;points=[];fontSize=11;fontFamily=Helvetica;fontColor=default;" vertex="1" connectable="0" parent="OCj9T3htOXgsMQk1pcai-90">
          <mxGeometry x="-0.9025" y="2" relative="1" as="geometry">
            <mxPoint x="-2" y="-12" as="offset" />
          </mxGeometry>
        </mxCell>
        <mxCell id="OCj9T3htOXgsMQk1pcai-87" value="Session completed" style="rhombus;whiteSpace=wrap;html=1;fontColor=#000000;fillColor=#ffffc0;strokeColor=#ff0000;fontFamily=Helvetica;fontSize=11;" vertex="1" parent="2">
          <mxGeometry x="170" y="840" width="80" height="60" as="geometry" />
        </mxCell>
        <mxCell id="OCj9T3htOXgsMQk1pcai-89" value="yes" style="edgeStyle=orthogonalEdgeStyle;html=1;align=left;verticalAlign=top;endArrow=open;endSize=8;strokeColor=#ff0000;rounded=0;labelBackgroundColor=default;fontFamily=Helvetica;fontSize=11;fontColor=default;shape=connector;elbow=horizontal;entryX=0.5;entryY=0;entryDx=0;entryDy=0;" edge="1" source="OCj9T3htOXgsMQk1pcai-87" parent="2" target="OCj9T3htOXgsMQk1pcai-92">
          <mxGeometry x="-1" relative="1" as="geometry">
            <mxPoint x="210" y="940" as="targetPoint" />
          </mxGeometry>
        </mxCell>
        <mxCell id="OCj9T3htOXgsMQk1pcai-94" style="edgeStyle=elbowEdgeStyle;shape=connector;rounded=0;orthogonalLoop=1;jettySize=auto;elbow=horizontal;html=1;exitX=0.5;exitY=1;exitDx=0;exitDy=0;entryX=0.5;entryY=0;entryDx=0;entryDy=0;labelBackgroundColor=default;strokeColor=#FF0000;fontFamily=Helvetica;fontSize=11;fontColor=default;endArrow=open;endFill=1;endSize=8;" edge="1" parent="2" source="OCj9T3htOXgsMQk1pcai-92" target="OCj9T3htOXgsMQk1pcai-93">
          <mxGeometry relative="1" as="geometry" />
        </mxCell>
        <mxCell id="OCj9T3htOXgsMQk1pcai-92" value="Mark session as completed" style="whiteSpace=wrap;" vertex="1" parent="2">
          <mxGeometry x="155" y="930" width="110" height="50" as="geometry" />
        </mxCell>
        <mxCell id="OCj9T3htOXgsMQk1pcai-93" value="" style="ellipse;html=1;shape=endState;fillColor=#000000;strokeColor=#ff0000;fontFamily=Helvetica;fontSize=11;fontColor=default;" vertex="1" parent="2">
          <mxGeometry x="195" y="1020" width="30" height="30" as="geometry" />
        </mxCell>
        <mxCell id="OCj9T3htOXgsMQk1pcai-41" value="OtherService" style="swimlane;whiteSpace=wrap" vertex="1" parent="1">
          <mxGeometry x="170" y="120" width="280" height="1060" as="geometry" />
        </mxCell>
        <mxCell id="OCj9T3htOXgsMQk1pcai-42" value="" style="ellipse;shape=startState;fillColor=#000000;strokeColor=#ff0000;" vertex="1" parent="OCj9T3htOXgsMQk1pcai-41">
          <mxGeometry x="125" y="40" width="30" height="30" as="geometry" />
        </mxCell>
        <mxCell id="OCj9T3htOXgsMQk1pcai-43" value="" style="edgeStyle=elbowEdgeStyle;elbow=horizontal;verticalAlign=bottom;endArrow=open;endSize=8;strokeColor=#FF0000;endFill=1;rounded=0" edge="1" parent="OCj9T3htOXgsMQk1pcai-41" source="OCj9T3htOXgsMQk1pcai-42" target="OCj9T3htOXgsMQk1pcai-44">
          <mxGeometry x="100" y="40" as="geometry">
            <mxPoint x="140" y="110" as="targetPoint" />
          </mxGeometry>
        </mxCell>
        <mxCell id="OCj9T3htOXgsMQk1pcai-44" value="Call create session" style="" vertex="1" parent="OCj9T3htOXgsMQk1pcai-41">
          <mxGeometry x="85" y="110" width="110" height="50" as="geometry" />
        </mxCell>
        <mxCell id="OCj9T3htOXgsMQk1pcai-55" value="Start session" style="" vertex="1" parent="OCj9T3htOXgsMQk1pcai-41">
          <mxGeometry x="85" y="210" width="110" height="50" as="geometry" />
        </mxCell>
        <mxCell id="OCj9T3htOXgsMQk1pcai-51" style="edgeStyle=elbowEdgeStyle;shape=connector;rounded=0;orthogonalLoop=1;jettySize=auto;elbow=horizontal;html=1;exitX=1;exitY=0.5;exitDx=0;exitDy=0;labelBackgroundColor=default;strokeColor=#FF0000;fontFamily=Helvetica;fontSize=11;fontColor=default;endArrow=open;endFill=1;endSize=8;entryX=0;entryY=0.5;entryDx=0;entryDy=0;" edge="1" parent="1" source="OCj9T3htOXgsMQk1pcai-44" target="OCj9T3htOXgsMQk1pcai-52">
          <mxGeometry relative="1" as="geometry">
            <mxPoint x="510" y="255" as="targetPoint" />
          </mxGeometry>
        </mxCell>
        <mxCell id="OCj9T3htOXgsMQk1pcai-56" style="edgeStyle=elbowEdgeStyle;shape=connector;rounded=0;orthogonalLoop=1;jettySize=auto;elbow=horizontal;html=1;exitX=0;exitY=0.5;exitDx=0;exitDy=0;entryX=1;entryY=0.5;entryDx=0;entryDy=0;labelBackgroundColor=default;strokeColor=#FF0000;fontFamily=Helvetica;fontSize=11;fontColor=default;endArrow=open;endFill=1;endSize=8;" edge="1" parent="1" source="OCj9T3htOXgsMQk1pcai-54" target="OCj9T3htOXgsMQk1pcai-55">
          <mxGeometry relative="1" as="geometry" />
        </mxCell>
        <mxCell id="OCj9T3htOXgsMQk1pcai-57" style="edgeStyle=elbowEdgeStyle;shape=connector;rounded=0;orthogonalLoop=1;jettySize=auto;elbow=horizontal;html=1;exitX=0.5;exitY=1;exitDx=0;exitDy=0;labelBackgroundColor=default;strokeColor=#FF0000;fontFamily=Helvetica;fontSize=11;fontColor=default;endArrow=open;endFill=1;endSize=8;entryX=0;entryY=0.5;entryDx=0;entryDy=0;" edge="1" parent="1" source="OCj9T3htOXgsMQk1pcai-55" target="OCj9T3htOXgsMQk1pcai-58">
          <mxGeometry relative="1" as="geometry">
            <mxPoint x="530" y="430" as="targetPoint" />
            <Array as="points">
              <mxPoint x="310" y="440" />
            </Array>
          </mxGeometry>
        </mxCell>
      </root>
    </mxGraphModel>
  </diagram>
</mxfile>
